# xmcd
#
# Track frame offsets:
#	150
#	20417
#	41217
#	53255
#	64713
#	85282
#	99694
#	111158
#	124704
#	144317
#	158956
#	178945
#	195772
#	212498
#	230365
#	249159
#	262856
#	275365
#	294918
#
# Disc length: 4123 seconds
#
# Revision: 1
# Processed by: cddbd v1.5.2PL0 Copyright (c) Steve Scherf et al.
# Submitted via: audiograbber 1.83.01
#
DISCID=fb101913
DTITLE=Various Artist - The Blues News Collection Vol. 1
DYEAR=1997
DGENRE=Blues
TTITLE0=Little Roger and The Houserockers - Jumpin' The Blues
TTITLE1=Lösekes Blues Gang - I Got You On My Mind
TTITLE2=Walking Blues Prophets - Down Yonder
TTITLE3=Reverend Rusty and The Case - Westend Bound
TTITLE4=Foolhouse Bluesband - Houng Dog
TTITLE5=The Blues and Boogie Factory - Immaturity Blues
TTITLE6=The Zydeco Playboys - Hey Papa Joe
TTITLE7=Working Blues Band - China
TTITLE8=The Capital Blues Duo - Acid H
TTITLE9=Rudis Slide and Washboard Band - Dahlumer Goat Fuck Blues
TTITLE10=J.J. and The Shuffle Kings - May I Stay For The Night
TTITLE11=Papa's Finest Boogie Band - Papa's Finest Boogie Band
TTITLE12=Junior and The Bon Ton Roulet - Phoneline Woman
TTITLE13=Clever and Smart Blues Duo - It Seems Like The End
TTITLE14=The Bootleggin' Hobos - No More Doggin'
TTITLE15=Blues Blend - Sick and Tired
TTITLE16=D.C. and The Cruisers - Got My Heart Set On You
TTITLE17=Saure Gummern - Albino Blues
TTITLE18=B.B. and The Blues Shacks - 55 Black and White
EXTD=
EXTT0=
EXTT1=
EXTT2=
EXTT3=
EXTT4=
EXTT5=
EXTT6=
EXTT7=
EXTT8=
EXTT9=
EXTT10=
EXTT11=
EXTT12=
EXTT13=
EXTT14=
EXTT15=
EXTT16=
EXTT17=
EXTT18=
PLAYORDER=
